M48
; DRILL file {KiCad 8.0.0} date 2025-03-21T19:28:25+0700
; FORMAT={-:-/ absolute / metric / decimal}
; #@! TF.CreationDate,2025-03-21T19:28:25+07:00
; #@! TF.GenerationSoftware,Kicad,Pcbnew,8.0.0
; #@! TF.FileFunction,Plated,1,2,PTH
FMAT,2
METRIC
; #@! TA.AperFunction,Plated,PTH,ViaDrill
T1C0.300
; #@! TA.AperFunction,Plated,PTH,ComponentDrill
T2C1.000
; #@! TA.AperFunction,Plated,PTH,ComponentDrill
T3C1.500
; #@! TA.AperFunction,Plated,PTH,ComponentDrill
T4C3.048
%
G90
G05
T1
X10.477Y-37.306
X34.29Y-36.512
X53.34Y-36.512
X72.39Y-35.719
X91.44Y-34.925
X110.49Y-34.925
X129.54Y-34.925
X148.59Y-34.131
X167.64Y-34.131
X186.69Y-33.337
X205.74Y-32.703
X224.79Y-32.544
X244.475Y-42.862
X246.062Y-32.544
X261.938Y-30.956
X280.988Y-30.225
X282.575Y-53.181
X283.369Y-43.656
T2
X287.041Y-1.77
X287.041Y-4.31
X287.041Y-6.85
X287.041Y-9.39
X287.041Y-11.93
X287.041Y-14.47
X287.041Y-17.01
X287.041Y-19.55
X287.041Y-22.09
X287.041Y-24.63
X287.041Y-27.17
X287.041Y-29.71
X287.041Y-32.25
X302.281Y-1.77
X302.281Y-4.31
X302.281Y-6.85
X302.281Y-9.39
X302.281Y-11.93
X302.281Y-14.47
X302.281Y-17.01
X302.281Y-19.55
X302.281Y-22.09
X302.281Y-24.63
X302.281Y-27.17
X302.281Y-29.71
X302.281Y-32.25
T3
X5.715Y-6.985
X8.096Y-83.185
X10.477Y-26.035
X12.065Y-4.445
X12.859Y-45.085
X14.446Y-80.645
X16.828Y-23.495
X17.621Y-64.135
X19.209Y-42.545
X23.971Y-61.595
X24.765Y-6.985
X31.115Y-4.445
X31.909Y-83.185
X34.29Y-26.035
X38.259Y-80.645
X39.052Y-45.085
X40.64Y-23.495
X43.815Y-6.985
X45.402Y-42.545
X48.578Y-64.135
X50.165Y-4.445
X53.34Y-26.035
X54.927Y-61.595
X55.721Y-83.185
X58.102Y-45.085
X59.69Y-23.495
X62.071Y-80.645
X62.865Y-6.985
X64.453Y-42.545
X67.627Y-64.135
X69.215Y-4.445
X72.39Y-26.035
X73.977Y-61.595
X77.153Y-45.085
X78.74Y-23.495
X81.915Y-6.985
X83.502Y-42.545
X86.677Y-64.135
X88.265Y-4.445
X91.44Y-26.035
X93.027Y-61.595
X96.203Y-45.085
X97.79Y-23.495
X100.965Y-6.985
X102.552Y-42.545
X105.727Y-64.135
X107.315Y-4.445
X110.49Y-26.035
X112.078Y-61.595
X115.252Y-45.085
X116.84Y-23.495
X120.015Y-6.985
X121.602Y-42.545
X124.777Y-64.135
X126.365Y-4.445
X127.159Y-83.185
X129.54Y-26.035
X131.127Y-61.595
X133.509Y-80.645
X134.302Y-45.085
X135.89Y-23.495
X139.065Y-6.985
X140.653Y-42.545
X143.827Y-64.135
X145.415Y-4.445
X148.59Y-26.035
X150.177Y-61.595
X153.352Y-45.085
X154.94Y-23.495
X158.115Y-6.985
X159.702Y-42.545
X162.877Y-64.135
X164.465Y-4.445
X167.64Y-26.035
X169.227Y-61.595
X172.403Y-45.085
X173.99Y-23.495
X177.165Y-6.985
X178.752Y-42.545
X181.927Y-64.135
X183.515Y-4.445
X186.69Y-26.035
X188.278Y-61.595
X191.452Y-45.085
X193.04Y-23.495
X196.215Y-6.985
X197.802Y-42.545
X198.596Y-83.185
X200.977Y-64.135
X202.565Y-4.445
X204.946Y-80.645
X205.74Y-26.035
X207.327Y-61.595
X210.502Y-45.085
X212.09Y-23.495
X215.265Y-6.985
X216.852Y-42.545
X220.028Y-64.135
X221.615Y-4.445
X222.409Y-83.185
X224.79Y-26.035
X226.377Y-61.595
X228.759Y-80.645
X229.552Y-45.085
X231.14Y-23.495
X234.315Y-6.985
X235.903Y-42.545
X240.665Y-4.445
X243.84Y-26.035
X246.221Y-83.185
X250.19Y-23.495
X252.571Y-80.645
X255.746Y-64.135
X260.509Y-45.085
X262.096Y-61.595
X262.89Y-6.985
X266.859Y-42.545
X267.652Y-26.035
X269.24Y-4.445
X270.034Y-83.185
X274.002Y-23.495
X276.384Y-80.645
X291.465Y-45.085
X291.465Y-64.135
X291.465Y-83.185
X297.815Y-42.545
X297.815Y-61.595
X297.815Y-80.645
T4
X9.525Y-73.66
X33.337Y-73.66
X80.962Y-92.71
X180.975Y-92.71
X247.65Y-73.66
X252.412Y-54.61
X254.794Y-2.54
X271.462Y-73.66
X276.225Y-54.61
X278.606Y-2.54
M30
