G04 #@! TF.GenerationSoftware,KiCad,Pcbnew,8.0.0*
G04 #@! TF.CreationDate,2025-03-21T19:28:15+07:00*
G04 #@! TF.ProjectId,60Keyboard,36304b65-7962-46f6-9172-642e6b696361,rev?*
G04 #@! TF.SameCoordinates,Original*
G04 #@! TF.FileFunction,Paste,Bot*
G04 #@! TF.FilePolarity,Positive*
%FSLAX46Y46*%
G04 Gerber Fmt 4.6, Leading zero omitted, Abs format (unit mm)*
G04 Created by KiCad (PCBNEW 8.0.0) date 2025-03-21 19:28:15*
%MOMM*%
%LPD*%
G01*
G04 APERTURE LIST*
G04 Aperture macros list*
%AMRoundRect*
0 Rectangle with rounded corners*
0 $1 Rounding radius*
0 $2 $3 $4 $5 $6 $7 $8 $9 X,Y pos of 4 corners*
0 Add a 4 corners polygon primitive as box body*
4,1,4,$2,$3,$4,$5,$6,$7,$8,$9,$2,$3,0*
0 Add four circle primitives for the rounded corners*
1,1,$1+$1,$2,$3*
1,1,$1+$1,$4,$5*
1,1,$1+$1,$6,$7*
1,1,$1+$1,$8,$9*
0 Add four rect primitives between the rounded corners*
20,1,$1+$1,$2,$3,$4,$5,0*
20,1,$1+$1,$4,$5,$6,$7,0*
20,1,$1+$1,$6,$7,$8,$9,0*
20,1,$1+$1,$8,$9,$2,$3,0*%
G04 Aperture macros list end*
%ADD10RoundRect,0.225000X0.375000X-0.225000X0.375000X0.225000X-0.375000X0.225000X-0.375000X-0.225000X0*%
G04 APERTURE END LIST*
D10*
X133350000Y-11175000D03*
X133350000Y-7875000D03*
X195103750Y-68483750D03*
X195103750Y-65183750D03*
X38100000Y-11175000D03*
X38100000Y-7875000D03*
X38100000Y-68325000D03*
X38100000Y-65025000D03*
X24606250Y-30225000D03*
X24606250Y-26925000D03*
X47625000Y-30225000D03*
X47625000Y-26925000D03*
X285750000Y-68325000D03*
X285750000Y-65025000D03*
X185737500Y-49275000D03*
X185737500Y-45975000D03*
X119062500Y-68325000D03*
X119062500Y-65025000D03*
X223837500Y-49275000D03*
X223837500Y-45975000D03*
X238125000Y-30225000D03*
X238125000Y-26925000D03*
X80962500Y-68325000D03*
X80962500Y-65025000D03*
X247650000Y-11175000D03*
X247650000Y-7875000D03*
X269875000Y-18318750D03*
X269875000Y-15018750D03*
X214312500Y-87375000D03*
X214312500Y-84075000D03*
X285750000Y-49275000D03*
X285750000Y-45975000D03*
X66675000Y-30225000D03*
X66675000Y-26925000D03*
X209550000Y-11175000D03*
X209550000Y-7875000D03*
X147637500Y-49275000D03*
X147637500Y-45975000D03*
X190500000Y-87375000D03*
X190500000Y-84075000D03*
X138112500Y-68325000D03*
X138112500Y-65025000D03*
X176053750Y-68483750D03*
X176053750Y-65183750D03*
X52387500Y-49275000D03*
X52387500Y-45975000D03*
X161925000Y-30225000D03*
X161925000Y-26925000D03*
X133350000Y-75627500D03*
X133350000Y-72327500D03*
X95250000Y-11175000D03*
X95250000Y-7875000D03*
X219075000Y-30225000D03*
X219075000Y-26925000D03*
X128587500Y-49212500D03*
X128587500Y-45912500D03*
X166687500Y-49275000D03*
X166687500Y-45975000D03*
X233362500Y-68325000D03*
X233362500Y-65025000D03*
X247650000Y-49275000D03*
X247650000Y-45975000D03*
X142875000Y-30225000D03*
X142875000Y-26925000D03*
X114300000Y-11175000D03*
X114300000Y-7875000D03*
X57150000Y-11175000D03*
X57150000Y-7875000D03*
X123825000Y-30225000D03*
X123825000Y-26925000D03*
X190500000Y-11175000D03*
X190500000Y-7875000D03*
X19050000Y-11175000D03*
X19050000Y-7875000D03*
X71437500Y-49337500D03*
X71437500Y-46037500D03*
X200025000Y-30225000D03*
X200025000Y-26925000D03*
X90487500Y-49337500D03*
X90487500Y-46037500D03*
X180975000Y-30225000D03*
X180975000Y-26925000D03*
X261937500Y-87375000D03*
X261937500Y-84075000D03*
X104775000Y-30225000D03*
X104775000Y-26925000D03*
X23812500Y-87375000D03*
X23812500Y-84075000D03*
X76200000Y-11175000D03*
X76200000Y-7875000D03*
X152400000Y-11175000D03*
X152400000Y-7875000D03*
X285750000Y-87375000D03*
X285750000Y-84075000D03*
X100012500Y-68325000D03*
X100012500Y-65025000D03*
X71437500Y-87375000D03*
X71437500Y-84075000D03*
X214153750Y-68483750D03*
X214153750Y-65183750D03*
X257175000Y-30225000D03*
X257175000Y-26925000D03*
X204787500Y-49275000D03*
X204787500Y-45975000D03*
X61912500Y-68325000D03*
X61912500Y-65025000D03*
X47625000Y-87375000D03*
X47625000Y-84075000D03*
X171450000Y-11175000D03*
X171450000Y-7875000D03*
X26193750Y-49275000D03*
X26193750Y-45975000D03*
X238125000Y-87375000D03*
X238125000Y-84075000D03*
X85725000Y-30225000D03*
X85725000Y-26925000D03*
X109537500Y-49275000D03*
X109537500Y-45975000D03*
X238125000Y-68325000D03*
X238125000Y-65025000D03*
X280987500Y-30225000D03*
X280987500Y-26925000D03*
X157003750Y-68483750D03*
X157003750Y-65183750D03*
X242887500Y-49275000D03*
X242887500Y-45975000D03*
X228600000Y-11175000D03*
X228600000Y-7875000D03*
M02*
