M48
; DRILL file {KiCad 8.0.0} date 2025-03-21T19:28:25+0700
; FORMAT={-:-/ absolute / metric / decimal}
; #@! TF.CreationDate,2025-03-21T19:28:25+07:00
; #@! TF.GenerationSoftware,Kicad,Pcbnew,8.0.0
; #@! TF.FileFunction,NonPlated,1,2,NPTH
FMAT,2
METRIC
; #@! TA.AperFunction,NonPlated,NPTH,ComponentDrill
T1C1.750
; #@! TA.AperFunction,NonPlated,NPTH,ComponentDrill
T2C3.988
; #@! TA.AperFunction,NonPlated,NPTH,ComponentDrill
T3C4.000
%
G90
G05
T1
X4.445Y-9.525
X6.826Y-85.725
X9.207Y-28.575
X11.589Y-47.625
X14.605Y-9.525
X16.351Y-66.675
X16.986Y-85.725
X19.367Y-28.575
X21.749Y-47.625
X23.495Y-9.525
X26.511Y-66.675
X30.639Y-85.725
X33.02Y-28.575
X33.655Y-9.525
X37.782Y-47.625
X40.799Y-85.725
X42.545Y-9.525
X43.18Y-28.575
X47.307Y-66.675
X47.942Y-47.625
X52.07Y-28.575
X52.705Y-9.525
X54.451Y-85.725
X56.832Y-47.625
X57.467Y-66.675
X61.595Y-9.525
X62.23Y-28.575
X64.611Y-85.725
X66.358Y-66.675
X66.992Y-47.625
X71.12Y-28.575
X71.755Y-9.525
X75.882Y-47.625
X76.517Y-66.675
X80.645Y-9.525
X81.28Y-28.575
X85.407Y-66.675
X86.042Y-47.625
X90.17Y-28.575
X90.805Y-9.525
X94.932Y-47.625
X95.567Y-66.675
X99.695Y-9.525
X100.33Y-28.575
X104.457Y-66.675
X105.093Y-47.625
X109.22Y-28.575
X109.855Y-9.525
X113.983Y-47.625
X114.617Y-66.675
X118.745Y-9.525
X119.38Y-28.575
X123.507Y-66.675
X124.142Y-47.625
X125.889Y-85.725
X128.27Y-28.575
X128.905Y-9.525
X133.032Y-47.625
X133.667Y-66.675
X136.049Y-85.725
X137.795Y-9.525
X138.43Y-28.575
X142.558Y-66.675
X143.192Y-47.625
X147.32Y-28.575
X147.955Y-9.525
X152.082Y-47.625
X152.718Y-66.675
X156.845Y-9.525
X157.48Y-28.575
X161.607Y-66.675
X162.243Y-47.625
X166.37Y-28.575
X167.005Y-9.525
X171.132Y-47.625
X171.767Y-66.675
X175.895Y-9.525
X176.53Y-28.575
X180.657Y-66.675
X181.292Y-47.625
X185.42Y-28.575
X186.055Y-9.525
X190.183Y-47.625
X190.817Y-66.675
X194.945Y-9.525
X195.58Y-28.575
X197.326Y-85.725
X199.707Y-66.675
X200.343Y-47.625
X204.47Y-28.575
X205.105Y-9.525
X207.486Y-85.725
X209.232Y-47.625
X209.867Y-66.675
X213.995Y-9.525
X214.63Y-28.575
X218.757Y-66.675
X219.392Y-47.625
X221.139Y-85.725
X223.52Y-28.575
X224.155Y-9.525
X228.282Y-47.625
X228.917Y-66.675
X231.299Y-85.725
X233.045Y-9.525
X233.68Y-28.575
X238.442Y-47.625
X242.57Y-28.575
X243.205Y-9.525
X244.951Y-85.725
X252.73Y-28.575
X254.476Y-66.675
X255.111Y-85.725
X259.239Y-47.625
X261.62Y-9.525
X264.636Y-66.675
X266.382Y-28.575
X268.764Y-85.725
X269.399Y-47.625
X271.78Y-9.525
X276.542Y-28.575
X278.924Y-85.725
X290.195Y-47.625
X290.195Y-66.675
X290.195Y-85.725
X300.355Y-47.625
X300.355Y-66.675
X300.355Y-85.725
T2
X9.525Y-58.42
X33.337Y-58.42
X80.962Y-77.47
X180.975Y-77.47
X247.65Y-58.42
X252.412Y-39.37
X254.794Y-17.78
X271.462Y-58.42
X276.225Y-39.37
X278.606Y-17.78
T3
X9.525Y-9.525
X11.906Y-85.725
X14.287Y-28.575
X16.669Y-47.625
X21.431Y-66.675
X28.575Y-9.525
X35.719Y-85.725
X38.1Y-28.575
X42.862Y-47.625
X47.625Y-9.525
X52.387Y-66.675
X57.15Y-28.575
X59.531Y-85.725
X61.912Y-47.625
X66.675Y-9.525
X71.438Y-66.675
X76.2Y-28.575
X80.962Y-47.625
X85.725Y-9.525
X90.487Y-66.675
X95.25Y-28.575
X100.012Y-47.625
X104.775Y-9.525
X109.537Y-66.675
X114.3Y-28.575
X119.062Y-47.625
X123.825Y-9.525
X128.588Y-66.675
X130.969Y-85.725
X133.35Y-28.575
X138.112Y-47.625
X142.875Y-9.525
X147.637Y-66.675
X152.4Y-28.575
X157.162Y-47.625
X161.925Y-9.525
X166.688Y-66.675
X171.45Y-28.575
X176.213Y-47.625
X180.975Y-9.525
X185.737Y-66.675
X190.5Y-28.575
X195.262Y-47.625
X200.025Y-9.525
X202.406Y-85.725
X204.787Y-66.675
X209.55Y-28.575
X214.312Y-47.625
X219.075Y-9.525
X223.837Y-66.675
X226.219Y-85.725
X228.6Y-28.575
X233.362Y-47.625
X238.125Y-9.525
X247.65Y-28.575
X250.031Y-85.725
X259.556Y-66.675
X264.319Y-47.625
X266.7Y-9.525
X271.462Y-28.575
X273.844Y-85.725
X295.275Y-47.625
X295.275Y-66.675
X295.275Y-85.725
M30
