G04 #@! TF.GenerationSoftware,KiCad,Pcbnew,8.0.0*
G04 #@! TF.CreationDate,2025-03-21T19:28:15+07:00*
G04 #@! TF.ProjectId,60Keyboard,36304b65-7962-46f6-9172-642e6b696361,rev?*
G04 #@! TF.SameCoordinates,Original*
G04 #@! TF.FileFunction,Soldermask,Top*
G04 #@! TF.FilePolarity,Negative*
%FSLAX46Y46*%
G04 Gerber Fmt 4.6, Leading zero omitted, Abs format (unit mm)*
G04 Created by KiCad (PCBNEW 8.0.0) date 2025-03-21 19:28:15*
%MOMM*%
%LPD*%
G01*
G04 APERTURE LIST*
%ADD10C,1.750000*%
%ADD11C,4.000000*%
%ADD12C,2.500000*%
%ADD13C,3.987800*%
%ADD14C,1.879600*%
G04 APERTURE END LIST*
D10*
X94932500Y-47625000D03*
D11*
X100012500Y-47625000D03*
D10*
X105092500Y-47625000D03*
D12*
X96202500Y-45085000D03*
X102552500Y-42545000D03*
D13*
X254793750Y-17780000D03*
X278606250Y-17780000D03*
D10*
X42545000Y-9525000D03*
D11*
X47625000Y-9525000D03*
D10*
X52705000Y-9525000D03*
D12*
X43815000Y-6985000D03*
X50165000Y-4445000D03*
D10*
X199707500Y-66675000D03*
D11*
X204787500Y-66675000D03*
D10*
X209867500Y-66675000D03*
D12*
X200977500Y-64135000D03*
X207327500Y-61595000D03*
D10*
X80645000Y-9525000D03*
D11*
X85725000Y-9525000D03*
D10*
X90805000Y-9525000D03*
D12*
X81915000Y-6985000D03*
X88265000Y-4445000D03*
D13*
X180975000Y-77470000D03*
X80962500Y-77470000D03*
D10*
X75882500Y-47625000D03*
D11*
X80962500Y-47625000D03*
D10*
X86042500Y-47625000D03*
D12*
X77152500Y-45085000D03*
X83502500Y-42545000D03*
D10*
X4445000Y-9525000D03*
D11*
X9525000Y-9525000D03*
D10*
X14605000Y-9525000D03*
D12*
X5715000Y-6985000D03*
X12065000Y-4445000D03*
D10*
X218757500Y-66675000D03*
D11*
X223837500Y-66675000D03*
D10*
X228917500Y-66675000D03*
D12*
X220027500Y-64135000D03*
X226377500Y-61595000D03*
D13*
X33337500Y-58420000D03*
X9525000Y-58420000D03*
D10*
X156845000Y-9525000D03*
D11*
X161925000Y-9525000D03*
D10*
X167005000Y-9525000D03*
D12*
X158115000Y-6985000D03*
X164465000Y-4445000D03*
D10*
X11588750Y-47625000D03*
D11*
X16668750Y-47625000D03*
D10*
X21748750Y-47625000D03*
D12*
X12858750Y-45085000D03*
X19208750Y-42545000D03*
D10*
X290195000Y-47625000D03*
D11*
X295275000Y-47625000D03*
D10*
X300355000Y-47625000D03*
D12*
X291465000Y-45085000D03*
X297815000Y-42545000D03*
D10*
X290195000Y-85725000D03*
D11*
X295275000Y-85725000D03*
D10*
X300355000Y-85725000D03*
D12*
X291465000Y-83185000D03*
X297815000Y-80645000D03*
D10*
X261620000Y-9525000D03*
D11*
X266700000Y-9525000D03*
D10*
X271780000Y-9525000D03*
D12*
X262890000Y-6985000D03*
X269240000Y-4445000D03*
D10*
X16351250Y-66675000D03*
D11*
X21431250Y-66675000D03*
D10*
X26511250Y-66675000D03*
D12*
X17621250Y-64135000D03*
X23971250Y-61595000D03*
D10*
X61595000Y-9525000D03*
D11*
X66675000Y-9525000D03*
D10*
X71755000Y-9525000D03*
D12*
X62865000Y-6985000D03*
X69215000Y-4445000D03*
D10*
X85407500Y-66675000D03*
D11*
X90487500Y-66675000D03*
D10*
X95567500Y-66675000D03*
D12*
X86677500Y-64135000D03*
X93027500Y-61595000D03*
D10*
X54451250Y-85725000D03*
D11*
X59531250Y-85725000D03*
D10*
X64611250Y-85725000D03*
D12*
X55721250Y-83185000D03*
X62071250Y-80645000D03*
D10*
X66357500Y-66675000D03*
D11*
X71437500Y-66675000D03*
D10*
X76517500Y-66675000D03*
D12*
X67627500Y-64135000D03*
X73977500Y-61595000D03*
D10*
X33020000Y-28575000D03*
D11*
X38100000Y-28575000D03*
D10*
X43180000Y-28575000D03*
D12*
X34290000Y-26035000D03*
X40640000Y-23495000D03*
D10*
X233045000Y-9525000D03*
D11*
X238125000Y-9525000D03*
D10*
X243205000Y-9525000D03*
D12*
X234315000Y-6985000D03*
X240665000Y-4445000D03*
D10*
X244951250Y-85725000D03*
D11*
X250031250Y-85725000D03*
D10*
X255111250Y-85725000D03*
D12*
X246221250Y-83185000D03*
X252571250Y-80645000D03*
D10*
X161607500Y-66675000D03*
D11*
X166687500Y-66675000D03*
D10*
X171767500Y-66675000D03*
D12*
X162877500Y-64135000D03*
X169227500Y-61595000D03*
D10*
X147320000Y-28575000D03*
D11*
X152400000Y-28575000D03*
D10*
X157480000Y-28575000D03*
D12*
X148590000Y-26035000D03*
X154940000Y-23495000D03*
D10*
X242570000Y-28575000D03*
D11*
X247650000Y-28575000D03*
D10*
X252730000Y-28575000D03*
D12*
X243840000Y-26035000D03*
X250190000Y-23495000D03*
D10*
X30638750Y-85725000D03*
D11*
X35718750Y-85725000D03*
D10*
X40798750Y-85725000D03*
D12*
X31908750Y-83185000D03*
X38258750Y-80645000D03*
D10*
X268763750Y-85725000D03*
D11*
X273843750Y-85725000D03*
D10*
X278923750Y-85725000D03*
D12*
X270033750Y-83185000D03*
X276383750Y-80645000D03*
D10*
X290195000Y-66675000D03*
D11*
X295275000Y-66675000D03*
D10*
X300355000Y-66675000D03*
D12*
X291465000Y-64135000D03*
X297815000Y-61595000D03*
D10*
X166370000Y-28575000D03*
D11*
X171450000Y-28575000D03*
D10*
X176530000Y-28575000D03*
D12*
X167640000Y-26035000D03*
X173990000Y-23495000D03*
D10*
X197326250Y-85725000D03*
D11*
X202406250Y-85725000D03*
D10*
X207486250Y-85725000D03*
D12*
X198596250Y-83185000D03*
X204946250Y-80645000D03*
D10*
X213995000Y-9525000D03*
D11*
X219075000Y-9525000D03*
D10*
X224155000Y-9525000D03*
D12*
X215265000Y-6985000D03*
X221615000Y-4445000D03*
D13*
X271462500Y-58420000D03*
X247650000Y-58420000D03*
D10*
X133032500Y-47625000D03*
D11*
X138112500Y-47625000D03*
D10*
X143192500Y-47625000D03*
D12*
X134302500Y-45085000D03*
X140652500Y-42545000D03*
D14*
X287041496Y-1770000D03*
X287041496Y-4310000D03*
X287041496Y-6850000D03*
X287041496Y-9390000D03*
X287041496Y-11930000D03*
X287041496Y-14470000D03*
X287041496Y-17010000D03*
X287041496Y-19550000D03*
X287041496Y-22090000D03*
X287041496Y-24630000D03*
X287041496Y-27170000D03*
X287041496Y-29710000D03*
X287041496Y-32250000D03*
X302281496Y-1770000D03*
X302281496Y-4310000D03*
X302281496Y-6850000D03*
X302281496Y-9390000D03*
X302281496Y-11930000D03*
X302281496Y-14470000D03*
X302281496Y-17010000D03*
X302281496Y-19550000D03*
X302281496Y-22090000D03*
X302281496Y-24630000D03*
X302281496Y-27170000D03*
X302281496Y-29710000D03*
X302281496Y-32250000D03*
D10*
X23495000Y-9525000D03*
D11*
X28575000Y-9525000D03*
D10*
X33655000Y-9525000D03*
D12*
X24765000Y-6985000D03*
X31115000Y-4445000D03*
D10*
X266382500Y-28575000D03*
D11*
X271462500Y-28575000D03*
D10*
X276542500Y-28575000D03*
D12*
X267652500Y-26035000D03*
X274002500Y-23495000D03*
D10*
X221138750Y-85725000D03*
D11*
X226218750Y-85725000D03*
D10*
X231298750Y-85725000D03*
D12*
X222408750Y-83185000D03*
X228758750Y-80645000D03*
D10*
X128270000Y-28575000D03*
D11*
X133350000Y-28575000D03*
D10*
X138430000Y-28575000D03*
D12*
X129540000Y-26035000D03*
X135890000Y-23495000D03*
D10*
X171132500Y-47625000D03*
D11*
X176212500Y-47625000D03*
D10*
X181292500Y-47625000D03*
D12*
X172402500Y-45085000D03*
X178752500Y-42545000D03*
D10*
X223520000Y-28575000D03*
D11*
X228600000Y-28575000D03*
D10*
X233680000Y-28575000D03*
D12*
X224790000Y-26035000D03*
X231140000Y-23495000D03*
D10*
X37782500Y-47625000D03*
D11*
X42862500Y-47625000D03*
D10*
X47942500Y-47625000D03*
D12*
X39052500Y-45085000D03*
X45402500Y-42545000D03*
D10*
X204470000Y-28575000D03*
D11*
X209550000Y-28575000D03*
D10*
X214630000Y-28575000D03*
D12*
X205740000Y-26035000D03*
X212090000Y-23495000D03*
D10*
X90170000Y-28575000D03*
D11*
X95250000Y-28575000D03*
D10*
X100330000Y-28575000D03*
D12*
X91440000Y-26035000D03*
X97790000Y-23495000D03*
D10*
X56832500Y-47625000D03*
D11*
X61912500Y-47625000D03*
D10*
X66992500Y-47625000D03*
D12*
X58102500Y-45085000D03*
X64452500Y-42545000D03*
D10*
X104457500Y-66675000D03*
D11*
X109537500Y-66675000D03*
D10*
X114617500Y-66675000D03*
D12*
X105727500Y-64135000D03*
X112077500Y-61595000D03*
D10*
X109220000Y-28575000D03*
D11*
X114300000Y-28575000D03*
D10*
X119380000Y-28575000D03*
D12*
X110490000Y-26035000D03*
X116840000Y-23495000D03*
D10*
X123507500Y-66675000D03*
D11*
X128587500Y-66675000D03*
D10*
X133667500Y-66675000D03*
D12*
X124777500Y-64135000D03*
X131127500Y-61595000D03*
D10*
X6826250Y-85725000D03*
D11*
X11906250Y-85725000D03*
D10*
X16986250Y-85725000D03*
D12*
X8096250Y-83185000D03*
X14446250Y-80645000D03*
D10*
X209232500Y-47625000D03*
D11*
X214312500Y-47625000D03*
D10*
X219392500Y-47625000D03*
D12*
X210502500Y-45085000D03*
X216852500Y-42545000D03*
D10*
X118745000Y-9525000D03*
D11*
X123825000Y-9525000D03*
D10*
X128905000Y-9525000D03*
D12*
X120015000Y-6985000D03*
X126365000Y-4445000D03*
D10*
X125888750Y-85725000D03*
D11*
X130968750Y-85725000D03*
D10*
X136048750Y-85725000D03*
D12*
X127158750Y-83185000D03*
X133508750Y-80645000D03*
D10*
X185420000Y-28575000D03*
D11*
X190500000Y-28575000D03*
D10*
X195580000Y-28575000D03*
D12*
X186690000Y-26035000D03*
X193040000Y-23495000D03*
D10*
X152082500Y-47625000D03*
D11*
X157162500Y-47625000D03*
D10*
X162242500Y-47625000D03*
D12*
X153352500Y-45085000D03*
X159702500Y-42545000D03*
D10*
X259238750Y-47625000D03*
D11*
X264318750Y-47625000D03*
D10*
X269398750Y-47625000D03*
D12*
X260508750Y-45085000D03*
X266858750Y-42545000D03*
D10*
X254476250Y-66675000D03*
D11*
X259556250Y-66675000D03*
D10*
X264636250Y-66675000D03*
D12*
X255746250Y-64135000D03*
X262096250Y-61595000D03*
D10*
X99695000Y-9525000D03*
D11*
X104775000Y-9525000D03*
D10*
X109855000Y-9525000D03*
D12*
X100965000Y-6985000D03*
X107315000Y-4445000D03*
D10*
X47307500Y-66675000D03*
D11*
X52387500Y-66675000D03*
D10*
X57467500Y-66675000D03*
D12*
X48577500Y-64135000D03*
X54927500Y-61595000D03*
D10*
X113982500Y-47625000D03*
D11*
X119062500Y-47625000D03*
D10*
X124142500Y-47625000D03*
D12*
X115252500Y-45085000D03*
X121602500Y-42545000D03*
D10*
X228282500Y-47625000D03*
D11*
X233362500Y-47625000D03*
D10*
X238442500Y-47625000D03*
D12*
X229552500Y-45085000D03*
X235902500Y-42545000D03*
D13*
X276225000Y-39370000D03*
X252412500Y-39370000D03*
D10*
X9207500Y-28575000D03*
D11*
X14287500Y-28575000D03*
D10*
X19367500Y-28575000D03*
D12*
X10477500Y-26035000D03*
X16827500Y-23495000D03*
D10*
X71120000Y-28575000D03*
D11*
X76200000Y-28575000D03*
D10*
X81280000Y-28575000D03*
D12*
X72390000Y-26035000D03*
X78740000Y-23495000D03*
D10*
X52070000Y-28575000D03*
D11*
X57150000Y-28575000D03*
D10*
X62230000Y-28575000D03*
D12*
X53340000Y-26035000D03*
X59690000Y-23495000D03*
D10*
X194945000Y-9525000D03*
D11*
X200025000Y-9525000D03*
D10*
X205105000Y-9525000D03*
D12*
X196215000Y-6985000D03*
X202565000Y-4445000D03*
D10*
X142557500Y-66675000D03*
D11*
X147637500Y-66675000D03*
D10*
X152717500Y-66675000D03*
D12*
X143827500Y-64135000D03*
X150177500Y-61595000D03*
D10*
X180657500Y-66675000D03*
D11*
X185737500Y-66675000D03*
D10*
X190817500Y-66675000D03*
D12*
X181927500Y-64135000D03*
X188277500Y-61595000D03*
D10*
X175895000Y-9525000D03*
D11*
X180975000Y-9525000D03*
D10*
X186055000Y-9525000D03*
D12*
X177165000Y-6985000D03*
X183515000Y-4445000D03*
D10*
X137795000Y-9525000D03*
D11*
X142875000Y-9525000D03*
D10*
X147955000Y-9525000D03*
D12*
X139065000Y-6985000D03*
X145415000Y-4445000D03*
D10*
X190182500Y-47625000D03*
D11*
X195262500Y-47625000D03*
D10*
X200342500Y-47625000D03*
D12*
X191452500Y-45085000D03*
X197802500Y-42545000D03*
M02*
